<svg width="67" height="70" viewBox="0 0 67 70" fill="none" xmlns="http://www.w3.org/2000/svg">
<ellipse cx="33.9816" cy="35" rx="33.0187" ry="35" fill="white"/>
<mask id="path-2-inside-1_171_424" fill="white">
<path d="M33.9816 45.9804H18.4434V42.3202H33.9816V45.9804ZM49.5198 36.83H18.4434V33.1699H49.5198V36.83ZM49.5198 27.6797H33.9816V24.0196H49.5198V27.6797Z"/>
</mask>
<path d="M33.9816 45.9804H18.4434V42.3202H33.9816V45.9804ZM49.5198 36.83H18.4434V33.1699H49.5198V36.83ZM49.5198 27.6797H33.9816V24.0196H49.5198V27.6797Z" fill="#126EB2"/>
<path d="M33.9816 45.9804V50.9804H38.9816V45.9804H33.9816ZM18.4434 45.9804H13.4434V50.9804H18.4434V45.9804ZM18.4434 42.3202V37.3202H13.4434V42.3202H18.4434ZM33.9816 42.3202H38.9816V37.3202H33.9816V42.3202ZM49.5198 36.83V41.83H54.5198V36.83H49.5198ZM18.4434 36.83H13.4434V41.83H18.4434V36.83ZM18.4434 33.1699V28.1699H13.4434V33.1699H18.4434ZM49.5198 33.1699H54.5198V28.1699H49.5198V33.1699ZM49.5198 27.6797V32.6797H54.5198V27.6797H49.5198ZM33.9816 27.6797H28.9816V32.6797H33.9816V27.6797ZM33.9816 24.0196V19.0196H28.9816V24.0196H33.9816ZM49.5198 24.0196H54.5198V19.0196H49.5198V24.0196ZM33.9816 40.9804H18.4434V50.9804H33.9816V40.9804ZM23.4434 45.9804V42.3202H13.4434V45.9804H23.4434ZM18.4434 47.3202H33.9816V37.3202H18.4434V47.3202ZM28.9816 42.3202V45.9804H38.9816V42.3202H28.9816ZM49.5198 31.83H18.4434V41.83H49.5198V31.83ZM23.4434 36.83V33.1699H13.4434V36.83H23.4434ZM18.4434 38.1699H49.5198V28.1699H18.4434V38.1699ZM44.5198 33.1699V36.83H54.5198V33.1699H44.5198ZM49.5198 22.6797H33.9816V32.6797H49.5198V22.6797ZM38.9816 27.6797V24.0196H28.9816V27.6797H38.9816ZM33.9816 29.0196H49.5198V19.0196H33.9816V29.0196ZM44.5198 24.0196V27.6797H54.5198V24.0196H44.5198Z" fill="#126EB2" mask="url(#path-2-inside-1_171_424)"/>
</svg>
