<svg width="460" height="312" viewBox="0 0 460 312" fill="none" xmlns="http://www.w3.org/2000/svg">
<rect width="460" height="312" rx="20" fill="#EDEDED"/>
<path d="M215.972 79C215.972 88.2826 212.285 97.185 205.721 103.749C199.157 110.313 190.255 114 180.972 114C171.689 114 162.787 110.313 156.223 103.749C149.659 97.185 145.972 88.2826 145.972 79C145.972 69.7174 149.659 60.815 156.223 54.2513C162.787 47.6875 171.689 44 180.972 44C190.255 44 199.157 47.6875 205.721 54.2513C212.285 60.815 215.972 69.7174 215.972 79ZM275.122 135.742C273.809 135.084 272.323 134.856 270.873 135.09C269.423 135.324 268.084 136.007 267.044 137.044L215.104 202.984L177.864 164.176C176.519 163.281 174.907 162.878 173.299 163.036C171.692 163.195 170.188 163.904 169.044 165.044L118 226V254C118 257.713 119.475 261.274 122.101 263.899C124.726 266.525 128.287 268 132 268H328C329.839 268 331.659 267.638 333.358 266.934C335.056 266.231 336.599 265.2 337.899 263.899C339.2 262.599 340.231 261.056 340.934 259.358C341.638 257.659 342 255.839 342 254V191L275.122 135.742Z" fill="black"/>
</svg>
